<svg xmlns="http://www.w3.org/2000/svg" xmlns:xlink="http://www.w3.org/1999/xlink" width="2000" zoomAndPan="magnify" viewBox="0 0 1500 1499.999933" height="2000" preserveAspectRatio="xMidYMid meet" version="1.0"><defs><g/><clipPath id="2a30583b0a"><rect x="0" width="1381" y="0" height="1232"/></clipPath></defs><rect x="-150" width="1800" fill="#ffffff" y="-149.999993" height="1799.99992" fill-opacity="1"/><rect x="-150" width="1800" fill="#000000" y="-149.999993" height="1799.99992" fill-opacity="1"/><g transform="matrix(1, 0, 0, 1, 0, 140)"><g clip-path="url(#2a30583b0a)"><g fill="#98c526" fill-opacity="1"><g transform="translate(119.865376, 1.137065)"><g><path d="M 272.265625 1035.8125 C 272.265625 1042.90625 269.472656 1052.03125 263.890625 1063.1875 C 258.316406 1074.34375 243.867188 1079.921875 220.546875 1079.921875 L 53.234375 1079.921875 C 29.910156 1079.921875 15.457031 1074.34375 9.875 1063.1875 C 4.300781 1052.03125 1.515625 1042.90625 1.515625 1035.8125 L 1.515625 495.84375 C 1.515625 462.382812 3.539062 431.457031 7.59375 403.0625 C 11.65625 374.675781 18.25 348.820312 27.375 325.5 C 44.613281 275.8125 72.5 236.265625 111.03125 206.859375 C 150.582031 176.441406 200.269531 154.640625 260.09375 141.453125 C 285.445312 136.378906 313.332031 132.066406 343.75 128.515625 C 374.164062 124.972656 407.117188 122.695312 442.609375 121.6875 L 450.21875 121.6875 L 641.859375 124.71875 C 653.003906 127.757812 665.675781 133.335938 679.875 141.453125 C 719.425781 163.765625 740.722656 198.242188 743.765625 244.890625 L 745.28125 1029.734375 C 745.28125 1035.816406 742.488281 1044.429688 736.90625 1055.578125 C 731.332031 1066.734375 716.882812 1072.3125 693.5625 1072.3125 L 573.40625 1072.3125 C 550.082031 1072.3125 535.378906 1066.734375 529.296875 1055.578125 C 523.210938 1044.429688 520.171875 1035.816406 520.171875 1029.734375 L 520.171875 349.828125 C 520.171875 349.828125 514.59375 349.570312 503.4375 349.0625 C 492.289062 348.5625 479.617188 348.054688 465.421875 347.546875 C 451.234375 347.046875 438.5625 346.796875 427.40625 346.796875 C 416.25 346.796875 410.671875 346.796875 410.671875 346.796875 C 406.617188 347.804688 402.3125 348.3125 397.75 348.3125 C 393.1875 348.3125 388.875 348.816406 384.8125 349.828125 C 356.425781 353.890625 333.613281 362.507812 316.375 375.6875 C 301.164062 387.851562 290.007812 403.066406 282.90625 421.328125 C 279.863281 432.472656 277.328125 444.382812 275.296875 457.0625 C 273.273438 469.738281 272.265625 484.191406 272.265625 500.421875 Z M 731.59375 255.53125 Z M 1256.34375 1037.328125 C 1256.34375 1043.410156 1253.300781 1052.03125 1247.21875 1063.1875 C 1241.132812 1074.34375 1226.429688 1079.921875 1203.109375 1079.921875 L 1082.953125 1079.921875 C 1059.628906 1079.921875 1044.925781 1074.34375 1038.84375 1063.1875 C 1032.757812 1052.03125 1029.71875 1043.410156 1029.71875 1037.328125 L 1031.234375 162.75 C 1031.234375 156.664062 1034.019531 148.300781 1039.59375 137.65625 C 1045.175781 127.007812 1059.628906 121.6875 1082.953125 121.6875 L 1201.59375 121.6875 C 1225.925781 121.6875 1241.132812 127.007812 1247.21875 137.65625 C 1253.300781 148.300781 1256.34375 156.664062 1256.34375 162.75 Z M 1256.34375 1037.328125 "/></g></g></g></g></g></svg>