<svg xmlns="http://www.w3.org/2000/svg" version="1" xmlns:xlink="http://www.w3.org/1999/xlink" width="2000" zoomAndPan="magnify" viewBox="0 0 1500 1499.999933" height="2000" preserveAspectRatio="xMidYMid meet"><defs><g></g><clipPath id="9b44d731a5"><rect x="0" width="1255" y="0" height="990"></rect></clipPath></defs><rect x="-150" width="1800" fill="#ffffff" y="-149.999993" height="1799.99992" fill-opacity="1"></rect><rect x="-150" width="1800" fill="#000000" y="-149.999993" height="1799.99992" fill-opacity="1"></rect><g transform="matrix(1, 0, 0, 1, 0, 262)"><g clip-path="url(#9b44d731a5)"><g fill="#98c526" fill-opacity="1"><g transform="translate(240.83471, 0.415957)"><g><path d="M 218.875 832.71875 C 218.875 838.425781 216.628906 845.757812 212.140625 854.71875 C 207.660156 863.6875 196.046875 868.171875 177.296875 868.171875 L 42.796875 868.171875 C 24.046875 868.171875 12.425781 863.6875 7.9375 854.71875 C 3.457031 845.757812 1.21875 838.425781 1.21875 832.71875 L 1.21875 398.625 C 1.21875 371.726562 2.847656 346.863281 6.109375 324.03125 C 9.367188 301.207031 14.671875 280.421875 22.015625 261.671875 C 35.867188 221.734375 58.285156 189.941406 89.265625 166.296875 C 121.054688 141.835938 161 124.3125 209.09375 113.71875 C 229.476562 109.644531 251.894531 106.179688 276.34375 103.328125 C 300.800781 100.472656 327.296875 98.640625 355.828125 97.828125 L 361.9375 97.828125 L 516.015625 100.265625 C 524.984375 102.710938 535.171875 107.195312 546.578125 113.71875 C 578.367188 131.65625 595.488281 159.375 597.9375 196.875 L 599.15625 827.828125 C 599.15625 832.710938 596.914062 839.640625 592.4375 848.609375 C 587.957031 857.578125 576.34375 862.0625 557.59375 862.0625 L 460.984375 862.0625 C 442.234375 862.0625 430.410156 857.578125 425.515625 848.609375 C 420.628906 839.640625 418.1875 832.710938 418.1875 827.828125 L 418.1875 281.234375 C 418.1875 281.234375 413.703125 281.03125 404.734375 280.625 C 395.773438 280.21875 385.585938 279.8125 374.171875 279.40625 C 362.753906 279 352.5625 278.796875 343.59375 278.796875 C 334.632812 278.796875 330.15625 278.796875 330.15625 278.796875 C 326.894531 279.609375 323.425781 280.015625 319.75 280.015625 C 316.082031 280.015625 312.617188 280.421875 309.359375 281.234375 C 286.535156 284.492188 268.195312 291.425781 254.34375 302.03125 C 242.113281 311.8125 233.144531 324.035156 227.4375 338.703125 C 224.988281 347.671875 222.945312 357.25 221.3125 367.4375 C 219.6875 377.632812 218.875 389.253906 218.875 402.296875 Z M 588.15625 205.421875 Z M 1010.015625 833.9375 C 1010.015625 838.832031 1007.566406 845.757812 1002.671875 854.71875 C 997.785156 863.6875 985.96875 868.171875 967.21875 868.171875 L 870.625 868.171875 C 851.875 868.171875 840.050781 863.6875 835.15625 854.71875 C 830.269531 845.757812 827.828125 838.832031 827.828125 833.9375 L 829.046875 130.84375 C 829.046875 125.945312 831.285156 119.21875 835.765625 110.65625 C 840.253906 102.101562 851.875 97.828125 870.625 97.828125 L 966 97.828125 C 985.5625 97.828125 997.785156 102.101562 1002.671875 110.65625 C 1007.566406 119.21875 1010.015625 125.945312 1010.015625 130.84375 Z M 1010.015625 833.9375 "></path></g></g></g></g></g></svg>